<svg version="1" xmlns="http://www.w3.org/2000/svg" width="533.333" height="533.333" viewBox="0 0 400.000000 400.000000"><path d="M0 200v200h400V0H0v200zm390 0v190H10V10h380v190z"/><path d="M17 200v183l183-.2 183-.3v-365l-183-.3L17 17v183zm361 0v178H22V22h356v178z"/><path d="M37.2 96.7l.3 59.8 13.1.3 13.1.3-.5-12.5c-1-25.4 5-46.4 19.3-68.1 9.4-14.1 23.3-27.6 37-35.9l6-3.6H37l.2 59.7zM243 51.1c0 10.9-.3 14-1.2 13.6-.7-.3-5.8-2.6-11.3-5.1-46.2-20.8-94.7-9.5-117.8 27.5-23.1 37.1-15.8 90.6 15.9 116.4 23.7 19.2 59.8 23.4 91.5 10.5 11-4.4 10.5-3.3 9.1-21.7-.6-8.7-2-19.3-3-23.6l-1.9-7.7 20.1-.2c35.3-.2 43.6.6 57.4 5.8 26.5 10 43.1 35.1 39.5 60-2.6 18.2-14.5 33.5-35.9 46-1.7 1-1.6 1.4 1.5 7 9.1 16 35.5 52 52.8 71.7l3.3 3.7V37H243v14.1zM67.6 177.5c-1.5 4-2.6 40-2.9 99.8l-.4 64.9 6.6-.7c24.2-2.4 46.6-7.4 66.4-14.9 3.7-1.4 6.7-2.4 6.7-2.2 0 .2-3.6 8.5-8 18.5s-8 18.6-8 19.2c0 .5 7.5.9 18.4.9 15.8 0 18.5-.2 19-1.6.3-.9.6-26.4.6-56.8v-55.3l-7.6-.7c-16.5-1.5-38.5-9.4-50.7-18.3-16.2-11.7-28.7-27.9-36.2-46.8-3.2-8.2-3.1-8-3.9-6z"/><path d="M260 223c0 24.2.4 44 .8 44 2.6 0 22-7.4 27.4-10.4 7.9-4.4 16-12.6 18.9-19.1 3.1-7 3.8-19.4 1.4-26.6-3.8-11.4-11.1-19.7-22.3-25.3-5.8-3-18.8-6.6-23.4-6.6H260v44zM225.8 241.5c-1 1.1-14.4 4.5-23.3 6.1-4.9.8-9.3 2.1-9.7 2.7-.9 1.4-1.1 105.1-.2 109.6l.7 3.1h31.4l1.7-9.8c2.8-16.3 3.6-32 3.6-73 0-37.3-.1-39.2-1.8-39.2-1 0-2.1.2-2.4.5zM260 298.2c0 28.6 1.1 45.1 3.8 56.8l1.8 7.5 36.9.3 36.9.2-11-10.4c-17.4-16.5-32.4-34.1-61.3-72.4-3.4-4.5-6.4-8.2-6.6-8.2-.3 0-.5 11.8-.5 26.2z"/></svg>